<svg width="24" height="15" viewBox="0 0 24 15" fill="none" xmlns="http://www.w3.org/2000/svg">
<path fill-rule="evenodd" clip-rule="evenodd" d="M11.9374 0.0192701C11.9219 0.0347598 11.9092 2.47887 11.9092 5.45066V10.8539L11.8041 11.1332C11.1876 12.771 9.13744 13.1247 8.07101 11.7772C6.82014 10.1967 8.287 7.8856 10.2534 8.33889C10.5099 8.398 10.5034 8.43299 10.5042 6.98579C10.5049 5.48523 10.5738 5.63939 9.89206 5.61671C4.12725 5.42476 3.25065 13.5825 8.89386 14.9064C10.9561 15.3901 13.442 13.944 14.1524 11.8471C14.4064 11.0974 14.4007 11.18 14.4177 7.9747C14.43 5.65847 14.4444 5.03165 14.4849 5.03165C14.5133 5.03165 14.6099 5.08498 14.6995 5.1502C15.3995 5.65921 16.6567 6.08388 17.7209 6.17083C18.1434 6.20536 18.1108 6.3187 18.096 4.8666L18.0844 3.73085L17.8985 3.69764C15.7771 3.31845 14.5954 2.20869 14.3709 0.384744L14.3252 0.0129916L13.1454 0.00204558C12.4964 -0.00398507 11.9529 0.00378042 11.9374 0.0192701Z" fill="white"/>
</svg>
