<svg width="37" height="16" viewBox="0 0 37 16" fill="none" xmlns="http://www.w3.org/2000/svg">
<path fill-rule="evenodd" clip-rule="evenodd" d="M16.1407 0.523671C15.1451 0.612474 14.5751 0.842052 14.2934 1.26771C14.1606 1.46834 14.1828 1.51521 14.4398 1.57691C15.2881 1.7806 15.5993 2.16704 15.771 3.23016C15.8387 3.64919 15.8407 6.09665 15.7736 6.48575C15.5949 7.52358 15.4109 7.83784 14.9857 7.83141C14.4602 7.82348 13.6408 6.8734 12.5905 5.05408C12.5531 4.98936 12.4322 4.78084 12.3218 4.59076C12.1443 4.28525 11.5263 3.05197 11.3648 2.68103C11.3319 2.60552 11.259 2.44172 11.2027 2.31703C11.1465 2.19238 11.1004 2.08094 11.1004 2.06941C11.1004 1.82928 10.7271 1.38699 10.4031 1.2432L10.1961 1.15129L8.20654 1.15271C5.63125 1.15451 5.45674 1.19079 5.45345 1.72506C5.45207 1.94413 5.46529 1.98214 5.80603 2.73986C6.22608 3.67402 7.01895 5.26291 7.5431 6.22099C7.62277 6.36663 7.75311 6.60487 7.83273 6.75051C7.91236 6.89611 8.06466 7.16531 8.17116 7.34868C8.27769 7.53205 8.39975 7.74386 8.44243 7.81937C8.4851 7.89487 8.5339 7.9743 8.55088 7.99587C8.56787 8.01745 8.61674 8.09688 8.65949 8.17238C8.89845 8.59427 9.86312 10.0711 10.12 10.4081C10.1775 10.4837 10.3496 10.7131 10.5025 10.9181C12.1519 13.1297 14.0661 14.5647 16.1015 15.1156C16.5474 15.2363 16.6813 15.268 16.9252 15.3105C17.0762 15.3368 17.2845 15.3743 17.388 15.3936C17.6837 15.4489 20.0295 15.4384 20.1976 15.381C20.6001 15.2436 20.828 14.948 20.828 14.5632C20.828 13.5704 21.0993 12.5884 21.4724 12.2309C22.0328 11.6939 22.5627 11.9907 23.9621 13.6253C24.9272 14.7524 25.5798 15.2291 26.4856 15.4682C26.8123 15.5544 30.7548 15.4493 31.0695 15.3459C32.5113 14.8727 31.837 13.5653 28.5664 10.493C27.3222 9.32431 27.2372 9.01774 27.881 8.02349C27.9969 7.84451 28.2012 7.55327 28.335 7.37629C28.5822 7.04932 29.1455 6.31838 29.233 6.21118C29.2741 6.16082 29.7423 5.53571 29.9675 5.23059C31.3387 3.37255 31.996 2.01563 31.7526 1.54506C31.5458 1.14514 31.4738 1.13647 28.6139 1.16722C25.6488 1.19911 25.7785 1.16993 25.4995 1.86713C25.4801 1.91569 25.4271 2.03905 25.3819 2.14127C25.3366 2.24352 25.2995 2.33566 25.2995 2.34602C25.2995 2.35641 25.2573 2.45812 25.2058 2.57199C25.1543 2.68589 25.0735 2.86734 25.0262 2.97521C24.8595 3.35509 24.4172 4.23418 24.2269 4.56378C24.1209 4.74715 24.0022 4.95335 23.963 5.02203C23.8915 5.14727 23.7842 5.31715 23.3856 5.93662C22.0674 7.98485 21.1579 8.3441 20.8683 6.93094C20.8191 6.69042 20.8322 4.1371 20.8906 2.60258C20.9265 1.66019 20.8199 1.21048 20.4922 0.92203C20.3073 0.75929 20.1094 0.684725 19.5336 0.560895C19.2747 0.505236 16.6683 0.476642 16.1407 0.523671Z" fill="white"/>
</svg>
