<svg width="27" height="19" viewBox="0 0 27 19" fill="none" xmlns="http://www.w3.org/2000/svg">
<path d="M17.8022 1.5H9.80225C7.59311 1.5 5.80225 3.29086 5.80225 5.5V13.5C5.80225 15.7091 7.59311 17.5 9.80225 17.5H17.8022C20.0114 17.5 21.8022 15.7091 21.8022 13.5V5.5C21.8022 3.29086 20.0114 1.5 17.8022 1.5Z" stroke="white" stroke-width="2" stroke-linecap="round" stroke-linejoin="round"/>
<path d="M13.8022 12.5C15.4591 12.5 16.8022 11.1569 16.8022 9.5C16.8022 7.84315 15.4591 6.5 13.8022 6.5C12.1454 6.5 10.8022 7.84315 10.8022 9.5C10.8022 11.1569 12.1454 12.5 13.8022 12.5Z" stroke="white" stroke-width="2" stroke-linecap="round" stroke-linejoin="round"/>
<path d="M18.3022 5V5.001" stroke="white" stroke-width="2" stroke-linecap="round" stroke-linejoin="round"/>
</svg>
