<svg width="18" height="13" viewBox="0 0 18 13" fill="none" xmlns="http://www.w3.org/2000/svg">
<path fill-rule="evenodd" clip-rule="evenodd" d="M1.76406 0.572784C0.248225 0.891943 0.0982748 1.83893 1.30037 3.50084C1.43769 3.6907 1.58215 3.87391 1.62139 3.9079C1.73075 4.00272 2.21648 4.36015 2.69144 4.69537C3.11967 4.99761 4.57822 5.75031 4.74372 5.75453C4.79202 5.75574 4.99205 5.83578 5.18822 5.93238C5.3844 6.02899 5.58821 6.10831 5.64114 6.10867C5.69407 6.10903 5.83853 6.15365 5.96216 6.20792C6.08578 6.26211 6.40523 6.37485 6.67196 6.45846C7.94546 6.85745 7.72111 7.61629 6.41472 7.32869C6.25021 7.29242 5.82669 7.20945 5.47357 7.14419C5.12045 7.07893 4.76734 6.99703 4.68887 6.96212C3.80294 6.56778 2.01374 6.11981 2.01374 6.29231C2.01374 6.54971 2.92535 7.89896 3.34281 8.25939C3.83204 8.6818 5.13108 9.46513 5.34238 9.46513C5.39282 9.46513 5.57137 9.52575 5.73916 9.59986C6.24344 9.82256 6.74244 9.96565 7.01323 9.96529C7.90508 9.96408 8.37633 10.251 8.12152 10.6403C7.97792 10.8597 6.35972 10.9139 5.68273 10.7221C4.83725 10.4824 4.38711 10.5166 4.5708 10.8063C4.64342 10.9208 6.2306 11.9624 6.33403 11.9634C6.37569 11.9638 6.55225 12.0345 6.72639 12.1205C7.41179 12.4591 10.0065 12.6202 11.1805 12.397C12.546 12.1375 12.6304 12.1187 12.7762 12.0406C12.8546 11.9986 13.0006 11.9641 13.1004 11.9641C14.0355 11.9641 15.8942 10.9406 16.9793 9.8282C17.9132 8.8708 17.9487 8.71086 17.3526 8.14423C17.2286 8.02641 17.0741 7.81757 17.0092 7.68012C16.8536 7.35047 14.8927 5.3896 14.2123 4.88337C13.5324 4.37743 12.3454 3.57431 12.0094 3.39289C11.8674 3.31613 11.5586 3.14113 11.3232 3.0039C11.0878 2.86659 10.7186 2.67196 10.5028 2.57135C10.287 2.47068 10.0463 2.35779 9.96779 2.32052C9.71062 2.19821 8.62216 1.81779 8.1487 1.68477C7.89367 1.61309 7.60476 1.52191 7.50667 1.48214C7.40858 1.44237 7.15177 1.36197 6.93597 1.30342C5.91422 1.02639 5.67203 0.958917 5.46851 0.894728C5.34802 0.856743 5.16133 0.825684 5.05361 0.825684C4.94596 0.825684 4.78774 0.787199 4.70199 0.740218C4.30679 0.523303 2.49048 0.419844 1.76406 0.572784Z" fill="#0C1218"/>
</svg>
