<svg width="206" height="50" viewBox="0 0 206 50" fill="none" xmlns="http://www.w3.org/2000/svg">
<path fill-rule="evenodd" clip-rule="evenodd" d="M3.46822 0.212958C-0.6908 1.14679 -1.10222 3.91757 2.19599 8.78018C2.57277 9.33567 2.96911 9.87173 3.07676 9.97118C3.37682 10.2486 4.70953 11.2944 6.01268 12.2753C7.18764 13.1596 11.1895 15.3619 11.6436 15.3742C11.7761 15.3778 12.3249 15.612 12.8632 15.8946C13.4014 16.1773 13.9606 16.4094 14.1058 16.4104C14.2511 16.4115 14.6474 16.542 14.9866 16.7008C15.3258 16.8594 16.2023 17.1892 16.9341 17.4339C20.4282 18.6013 19.8127 20.8216 16.2283 19.9801C15.777 19.874 14.6149 19.6312 13.6461 19.4403C12.6772 19.2493 11.7084 19.0097 11.4931 18.9075C9.06232 17.7537 4.15327 16.443 4.15327 16.9478C4.15327 17.7009 6.65447 21.6487 7.79987 22.7032C9.14217 23.9392 12.7064 26.2311 13.2861 26.2311C13.4245 26.2311 13.9144 26.4085 14.3748 26.6253C15.7584 27.2769 17.1275 27.6956 17.8705 27.6945C20.3174 27.691 21.6104 28.5306 20.9113 29.6696C20.5173 30.3113 16.0774 30.4701 14.2199 29.9088C11.9002 29.2077 10.6651 29.3075 11.1691 30.1553C11.3684 30.4902 15.7231 33.5378 16.0069 33.5409C16.1212 33.5419 16.6057 33.749 17.0834 34.0005C18.964 34.9912 26.0832 35.4625 29.3043 34.8096C33.0507 34.0502 33.2825 33.9951 33.6823 33.7667C33.8976 33.6437 34.2981 33.543 34.5719 33.543C37.1375 33.543 42.2374 30.5483 45.2146 27.2934C47.7769 24.4921 47.8742 24.0242 46.2387 22.3663C45.8985 22.0216 45.4747 21.4105 45.2966 21.0083C44.8698 20.0438 39.4894 14.3065 37.6227 12.8253C35.7572 11.345 32.5003 8.99515 31.5787 8.4643C31.189 8.23973 30.3417 7.72769 29.6958 7.32616C29.0498 6.92442 28.037 6.35493 27.4449 6.06058C26.8528 5.76601 26.1922 5.43572 25.9769 5.32667C25.2713 4.96881 22.2849 3.85573 20.9859 3.46653C20.2861 3.25679 19.4934 2.99001 19.2243 2.87364C18.9552 2.75728 18.2506 2.52205 17.6585 2.35074C14.8551 1.54017 14.1906 1.34275 13.6322 1.15494C13.3016 1.0438 12.7894 0.952919 12.4938 0.952919C12.1985 0.952919 11.7643 0.840317 11.5291 0.702854C10.4447 0.0681828 5.46132 -0.234529 3.46822 0.212958ZM53.3307 24.5101C52.3268 25.511 50.9191 29.1068 50.1387 32.6633C49.7132 34.6024 49.6189 34.8251 49.1742 34.9387C46.2083 35.6964 45.2749 38.6532 47.5906 39.9545C48.0672 40.2223 48.4872 40.4734 48.5238 40.5125C48.5604 40.5517 48.449 41.2792 48.276 42.1294C47.1555 47.6394 47.4737 49.6291 49.4756 49.6291C50.6631 49.6291 51.216 48.8735 51.4912 46.8746C52.1573 42.0392 52.7153 39.8136 53.1623 40.2097C53.3299 40.3583 53.4712 40.3593 53.6084 40.2129C53.7188 40.0951 54.4084 40.0267 55.1415 40.0612L56.4743 40.1237L56.9951 42.3172C58.3296 47.9365 59.2152 49.838 60.499 49.838C61.5058 49.838 61.8382 48.7935 61.5027 46.6837C61.3857 45.9483 61.203 44.7824 61.0966 44.093C60.9901 43.4036 60.7609 42.2019 60.5871 41.4225C60.2804 40.0474 60.2827 39.9916 60.6662 39.5423C61.9779 38.0043 61.68 36.1583 59.9885 35.3442C59.0878 34.9107 58.976 34.4898 58.9344 31.3724C58.9218 30.4407 58.8694 29.8662 58.8175 30.096C58.5047 31.4838 58.2802 30.8859 58.0086 27.9423C57.8275 25.9806 57.3805 24.9776 56.687 24.9776C56.5525 24.9776 56.1809 24.7426 55.861 24.4554C55.0576 23.7338 54.0883 23.7547 53.3307 24.5101ZM137.987 24.2974C136.976 24.9668 136.056 27.1326 134.823 31.7497L133.991 34.8658L133.118 35.1376C130.408 35.9808 129.941 40.2281 132.558 40.2281C133.048 40.2281 133.046 40.6409 132.548 42.944C132.337 43.9206 132.106 45.5359 132.035 46.5335L131.907 48.3472L132.507 48.9882C134.041 50.625 135.479 49.59 135.973 46.4955C136.864 40.9033 137.125 39.859 137.542 40.2281C137.721 40.3867 137.84 40.3898 137.927 40.2384C138.082 39.9712 140.704 39.9436 140.857 40.2077C140.917 40.3111 141.27 41.6819 141.641 43.2538C142.917 48.6616 144.587 51.1481 145.751 49.3736C146.23 48.6443 145.873 45.2487 144.872 41.0038C144.651 40.0698 144.664 40.0104 145.252 39.2494C146.322 37.8639 145.864 35.9281 144.311 35.2774C143.516 34.9439 143.316 34.2107 143.316 31.6321C143.316 31.0559 143.232 30.8271 143.022 30.8271C142.861 30.8271 142.729 30.7369 142.729 30.6264C142.729 27.8218 142.095 25.3311 141.315 25.0679C141.07 24.9852 140.597 24.696 140.264 24.4253C139.554 23.8487 138.734 23.8027 137.987 24.2974ZM93.5387 24.2782C93.4653 24.3566 93.4052 25.1805 93.405 26.1093C93.4046 30.7054 92.6579 35.5684 91.2915 39.8726C90.6111 42.0162 90.4714 41.8415 89.9038 38.139C89.6662 36.5879 89.3479 34.7077 89.197 33.9608C87.7843 26.9759 87.4644 26.0544 86.1333 25.1343C83.8519 23.5575 83.1206 25.7888 84.1948 31.0486C85.1396 35.6749 85.9356 40.9301 86.0795 43.4899C86.1846 45.3609 86.2867 45.894 86.6549 46.4955C86.9013 46.8976 87.1658 47.4617 87.2427 47.7489C88.5854 52.7603 95.7042 44.357 97.5963 35.5276C99.0805 28.6012 98.4949 24.7213 95.9228 24.4401L94.6408 24.2999L94.505 27.5489C94.311 32.1936 93.788 35.3283 92.5815 39.0791C91.9519 41.0368 91.0584 42.8207 90.8298 42.5767C90.6982 42.4363 90.7607 42.1 91.019 41.5587C92.9658 37.4801 95.1397 22.5691 93.5387 24.2782ZM162.203 24.6868C160.373 24.8417 157.189 24.9939 155.128 25.0253C153.066 25.0564 151.481 25.1513 151.605 25.2357C151.729 25.3201 152.287 25.3905 152.846 25.3923C153.405 25.394 153.925 25.5047 154.003 25.6384C154.109 25.8212 153.415 25.8478 151.199 25.7454C146.579 25.5319 145.942 26.6019 148.752 29.8605C149.412 30.6264 150.388 30.8917 153.004 31.0179L155.549 31.1405L155.522 31.8717C155.212 40.343 155.216 46.5347 155.533 47.4199C156.358 49.726 158.482 49.7507 158.885 47.4589C159.058 46.4723 159.362 46.49 159.379 47.4878C159.39 48.1162 159.426 48.1885 159.561 47.8534C159.654 47.6236 159.736 43.6516 159.743 39.0269C159.751 34.4022 159.813 30.6182 159.882 30.6182C160.394 30.6182 165.058 29.7153 165.5 29.5307C165.847 29.3857 166.168 29.0157 166.354 28.5479C166.517 28.1355 166.833 27.4073 167.055 26.9299C167.444 26.0951 167.446 26.0404 167.116 25.5029C166.928 25.1955 166.821 24.8105 166.88 24.6474C167.008 24.2922 166.849 24.2937 162.203 24.6868ZM64.9268 25.0583C64.6036 25.2085 64.2186 25.4868 64.0708 25.6769C63.9233 25.8668 63.6907 26.0222 63.5543 26.0222C63.4181 26.0222 63.1096 26.1925 62.8689 26.4003L62.4312 26.7787L62.7777 28.4894C62.9863 29.5204 63.2212 30.2004 63.3684 30.2004C63.6935 30.2004 63.7647 30.4177 64.6371 34.0653C65.0493 35.7888 65.6574 38.3214 65.9886 39.6931C66.695 42.6206 66.6586 42.3172 66.3037 42.3172C65.9021 42.3172 65.7451 41.8936 65.2207 39.3925C64.9679 38.186 64.6913 37.1131 64.6062 37.008C64.4136 36.77 64.5776 38.0367 64.9636 39.7658C65.3174 41.3512 65.2268 41.7622 64.5813 41.5002C61.4138 40.2148 61.2173 44.4318 64.3715 46.0049C65.9445 46.7896 66.2671 47.0363 66.5008 47.6334C67.0989 49.1611 68.7969 49.6592 70.1591 48.7064C70.5665 48.4214 70.7144 48.4222 71.5868 48.7143C81.8165 52.1373 85.6966 44.454 78.4138 35.1957C72.3554 27.494 67.5137 23.8548 64.9268 25.0583ZM105.665 25.2837C104.809 25.6094 103.881 26.4728 103.458 27.3369C103.301 27.6578 102.976 28.0004 102.735 28.0981C100.074 29.178 98.8983 40.8929 100.977 45.6122C103.417 51.15 109.827 50.2266 111.817 44.0502C113.306 39.4334 111.956 27.5057 109.853 26.6943C109.688 26.6306 109.236 26.2182 108.849 25.778C108.055 24.8755 107.12 24.7301 105.665 25.2837ZM115.374 25.1937C114.575 25.5363 114.473 26.1559 114.713 29.1937C115.289 36.4991 115.549 39.3795 115.724 40.4232C115.828 41.0475 115.914 43.1525 115.914 45.1006C115.914 49.5662 115.973 49.6375 119.046 48.8952C121.354 48.3376 124.978 47.9449 127.445 47.985C130.502 48.0347 131.05 47.6213 130.312 45.8236C130.157 45.4463 129.984 44.9015 129.928 44.6132C129.687 43.3693 126.19 42.9281 122.373 43.6599C120.459 44.0268 120.624 44.5027 120.194 37.3752C119.987 33.9462 119.697 30.2944 119.551 29.2603L119.284 27.3801L119.263 28.8026C119.24 30.3197 118.951 30.5434 118.748 29.2008C118.613 28.3117 118.271 26.5023 118.139 25.9867C117.98 25.3633 116.181 24.8475 115.374 25.1937ZM170.925 25.3382C167.798 26.6539 167.261 43.0545 170.311 44.0875C170.537 44.1642 171.066 44.768 171.487 45.429C175.496 51.7308 182.071 49.6262 184.021 41.4166C185.263 36.1897 184.88 26.9163 183.374 25.7289L182.819 25.291L182.388 25.8655C182.123 26.219 181.767 26.44 181.463 26.44C180.202 26.44 180.114 26.8029 180.103 32.0365C180.08 42.6601 179.036 45.4664 175.916 43.2845C175.278 42.8383 174.133 38.6024 173.849 35.6321L173.678 33.8564L173.741 36.2325C173.776 37.5545 173.732 38.4837 173.641 38.327C172.917 37.0765 172.864 29.7953 173.575 29.1816C175.381 27.621 173.159 24.3981 170.925 25.3382ZM188.323 25.5584C187.391 26.0548 187.148 26.9032 187.208 29.4506C187.243 30.9592 187.19 31.5452 187.012 31.6095C186.829 31.6755 186.762 31.2084 186.748 29.7477C186.726 27.5692 186.534 26.4918 186.281 27.1288C186.038 27.7388 186.331 43.2026 186.633 45.6995C186.965 48.4477 187.219 48.9238 188.462 49.1227C190.132 49.3899 190.164 49.2641 190.046 42.8828C189.934 36.8438 190.038 36.4615 190.88 39.8176C193.208 49.0972 193.189 49.0446 194.255 48.9621L195.086 48.8979L195.5 47.4356C196.207 44.9372 196.829 41.833 196.797 40.9593C196.766 40.1327 197.78 35.3463 198.455 33.1252C198.791 32.0198 199.196 31.7344 199.196 32.6029C199.196 32.8327 199.283 33.1617 199.39 33.3341C199.496 33.5064 199.77 34.5875 199.998 35.7365C200.226 36.8856 200.552 38.5307 200.722 39.3925C201.2 41.8102 201.643 45.2729 201.643 46.5882C201.643 48.1091 201.837 48.4711 202.992 49.0953C205.3 50.3438 206.514 47.7493 205.675 43.3618C204.731 38.4252 204.328 36.2175 203.885 33.5566C203.196 29.4089 202.55 27.4714 201.399 26.0945C200.401 24.901 197.458 25.6215 197.247 27.1108C196.319 33.6639 194.041 42.9346 193.725 41.4442C192.887 37.4975 191.466 29.0345 191.465 27.986C191.465 27.4094 190.614 25.826 190.157 25.5496C189.632 25.2329 188.927 25.2363 188.323 25.5584ZM115.999 26.2017C115.92 26.5052 115.874 28.8686 115.895 31.4539C115.955 38.6003 115.592 37.1204 114.992 27.7768C114.89 26.1833 114.91 26.0648 115.333 25.7487C115.909 25.3175 116.18 25.5014 115.999 26.2017ZM190.649 28.268C190.746 28.4692 190.932 29.2917 191.063 30.096C191.194 30.9003 191.47 32.4264 191.676 33.4872C192.23 36.3315 191.858 36.84 191.214 34.1177C189.959 28.8089 189.722 26.3485 190.649 28.268ZM107.05 28.7903C107.958 30.0517 108.715 34.477 108.74 38.6613C108.776 44.7283 107.28 47.5745 104.78 46.1944C103.415 45.4411 102.893 43.9058 104.085 44.149C104.654 44.2649 104.653 44.2764 104.271 41.795C103.744 38.3761 103.997 33.9978 104.862 31.5583C105.757 29.0328 106.526 28.0608 107.05 28.7903ZM150.715 29.6618C152.133 29.9865 152.359 30.1319 151.706 30.2978C151.111 30.4488 149.34 29.9675 149.235 29.6259C149.137 29.308 149.173 29.309 150.715 29.6618ZM55.2104 31.6106C55.7651 35.4589 55.7747 35.414 54.4003 35.42C53.3951 35.4242 53.3606 35.1996 53.9779 32.6752C54.7327 29.59 54.8984 29.4467 55.2104 31.6106ZM139.808 33.074C140.043 35.3212 140.002 35.4146 138.777 35.42C137.794 35.4244 137.785 35.3764 138.354 32.9002C139.152 29.4289 139.431 29.4623 139.808 33.074ZM105.556 31.1579C105.565 31.4012 105.612 31.4507 105.674 31.2842C105.731 31.1334 105.723 30.9531 105.659 30.8838C105.594 30.8144 105.547 30.9377 105.556 31.1579ZM70.5968 32.7871C74.8644 35.9701 80.4165 43.3559 79.5932 44.7548C78.8481 46.021 74.0851 45.9028 71.0344 44.5421C70.2051 44.1724 70.2662 44.3719 69.534 39.6392C69.2081 37.5344 68.7689 34.9099 68.5579 33.8066C68.0566 31.1879 68.2937 31.0693 70.5968 32.7871ZM64.046 35.2143C64.046 35.3674 64.1047 35.4301 64.1765 35.3536C64.2482 35.2769 64.2482 35.1516 64.1765 35.0749C64.1047 34.9985 64.046 35.0611 64.046 35.2143ZM52.8347 41.9165C52.655 42.654 52.4661 43.5864 52.4149 43.9885C52.1538 46.039 52.1097 46.9133 52.2677 46.9133C52.3638 46.9133 52.499 46.3348 52.5681 45.6276C52.6374 44.9205 52.8339 43.6056 53.0048 42.7058C53.3925 40.6631 53.2739 40.1128 52.8347 41.9165ZM137.198 42.2778C136.918 43.6188 136.509 47.6743 136.752 46.7044C136.93 45.9924 137.67 40.8181 137.604 40.7477C137.565 40.7057 137.382 41.3941 137.198 42.2778ZM123.254 49.2984L120.905 49.5378L124.872 49.5418C127.559 49.5447 128.817 49.4751 128.771 49.3264C128.676 49.0226 126.088 49.0095 123.254 49.2984ZM119.633 49.7336C119.633 49.791 119.677 49.838 119.731 49.838C119.784 49.838 119.828 49.791 119.828 49.7336C119.828 49.6761 119.784 49.6291 119.731 49.6291C119.677 49.6291 119.633 49.6761 119.633 49.7336Z" fill="white"/>
</svg>
